<svg width="500" height="500" viewBox="0 0 500 500" fill="none" xmlns="http://www.w3.org/2000/svg">
<path d="M416.504 242.563C422.388 237.291 427.874 232.06 432.929 226.9C448.635 210.871 460.905 194.806 467.764 179.647C474.514 164.73 477.317 147.474 468.02 132.614C459.273 118.634 443.327 112.586 427.278 110.43C410.8 108.217 390.82 109.582 369.008 113.611L350.502 117.033C322.561 95.881 287.746 83.3334 250 83.3334C157.953 83.3334 83.3333 157.953 83.3333 250C83.3333 251.805 83.362 253.604 83.419 255.395L72.4346 267.754C54.9467 284.777 41.2423 301.824 33.4296 317.814C25.804 333.422 22.1714 351.709 31.9797 367.386C40.9957 381.796 57.6523 387.791 74.3219 389.771C91.4994 391.812 112.388 390.103 135.211 385.581C139.697 384.692 144.289 383.688 148.977 382.571C138.899 374.879 129.723 366.064 121.638 356.313C103.88 359.35 89.1496 360.063 78.0086 358.74C64.8271 357.174 59.9891 353.236 58.4719 350.811C57.1704 348.731 55.7319 343.354 61.5076 331.533C66.5289 321.255 75.8413 308.791 89.4531 294.907C95.8224 317.725 106.926 338.569 121.638 356.313C124.081 355.895 126.581 355.433 129.138 354.927C171.242 346.584 225.247 326.772 280.797 297.176C336.329 267.59 381.806 234.407 410.547 205.092C404.177 182.274 393.074 161.43 378.362 143.687C396.79 140.535 411.902 139.896 423.119 141.402C435.504 143.066 440.065 146.85 441.528 149.189C442.763 151.164 444.141 156.052 439.293 166.764C434.555 177.235 425.057 190.283 410.608 205.03L410.547 205.092C413.896 217.091 415.936 229.636 416.504 242.563Z" fill="white"/>
<path d="M250 416.667C342.047 416.667 416.667 342.048 416.667 250C416.667 247.508 416.612 245.028 416.504 242.563C385.64 270.216 343.802 299.017 295.491 324.756C243.581 352.412 192.177 372.282 148.977 382.571C177.006 403.962 212.019 416.667 250 416.667Z" fill="white"/>
</svg>
